  0
SECTION
  2
HEADER
  9
$ACADVER
  1
AC1027
  9
$ACADMAINTVER
 70
105
  9
$DWGCODEPAGE
  3
ANSI_1252
  9
$LASTSAVEDBY
  1
ezdxf
  9
$REQUIREDVERSIONS
160
0
  9
$INSBASE
 10
0.0
 20
0.0
 30
0.0
  9
$EXTMIN
 10
1e+20
 20
1e+20
 30
1e+20
  9
$EXTMAX
 10
-1e+20
 20
-1e+20
 30
-1e+20
  9
$LIMMIN
 10
0.0
 20
0.0
  9
$LIMMAX
 10
420.0
 20
297.0
  9
$ORTHOMODE
 70
0
  9
$REGENMODE
 70
1
  9
$FILLMODE
 70
1
  9
$QTEXTMODE
 70
0
  9
$MIRRTEXT
 70
1
  9
$LTSCALE
 40
1.0
  9
$ATTMODE
 70
1
  9
$TEXTSIZE
 40
2.5
  9
$TRACEWID
 40
1.0
  9
$TEXTSTYLE
  7
Standard
  9
$CLAYER
  8
0
  9
$CELTYPE
  6
ByLayer
  9
$CECOLOR
 62
256
  9
$CELTSCALE
 40
1.0
  9
$DISPSILH
 70
0
  9
$DIMSCALE
 40
1.0
  9
$DIMASZ
 40
2.5
  9
$DIMEXO
 40
0.625
  9
$DIMDLI
 40
3.75
  9
$DIMRND
 40
0.0
  9
$DIMDLE
 40
0.0
  9
$DIMEXE
 40
1.25
  9
$DIMTP
 40
0.0
  9
$DIMTM
 40
0.0
  9
$DIMTXT
 40
2.5
  9
$DIMCEN
 40
2.5
  9
$DIMTSZ
 40
0.0
  9
$DIMTOL
 70
0
  9
$DIMLIM
 70
0
  9
$DIMTIH
 70
0
  9
$DIMTOH
 70
0
  9
$DIMSE1
 70
0
  9
$DIMSE2
 70
0
  9
$DIMTAD
 70
1
  9
$DIMZIN
 70
8
  9
$DIMBLK
  1

  9
$DIMASO
 70
1
  9
$DIMSHO
 70
1
  9
$DIMPOST
  1

  9
$DIMAPOST
  1

  9
$DIMALT
 70
0
  9
$DIMALTD
 70
3
  9
$DIMALTF
 40
0.03937007874
  9
$DIMLFAC
 40
1.0
  9
$DIMTOFL
 70
1
  9
$DIMTVP
 40
0.0
  9
$DIMTIX
 70
0
  9
$DIMSOXD
 70
0
  9
$DIMSAH
 70
0
  9
$DIMBLK1
  1

  9
$DIMBLK2
  1

  9
$DIMSTYLE
  2
ISO-25
  9
$DIMCLRD
 70
0
  9
$DIMCLRE
 70
0
  9
$DIMCLRT
 70
0
  9
$DIMTFAC
 40
1.0
  9
$DIMGAP
 40
0.625
  9
$DIMJUST
 70
0
  9
$DIMSD1
 70
0
  9
$DIMSD2
 70
0
  9
$DIMTOLJ
 70
0
  9
$DIMTZIN
 70
8
  9
$DIMALTZ
 70
0
  9
$DIMALTTZ
 70
0
  9
$DIMUPT
 70
0
  9
$DIMDEC
 70
2
  9
$DIMTDEC
 70
2
  9
$DIMALTU
 70
2
  9
$DIMALTTD
 70
3
  9
$DIMTXSTY
  7
Standard
  9
$DIMAUNIT
 70
0
  9
$DIMADEC
 70
0
  9
$DIMALTRND
 40
0.0
  9
$DIMAZIN
 70
0
  9
$DIMDSEP
 70
44
  9
$DIMATFIT
 70
3
  9
$DIMFRAC
 70
0
  9
$DIMLDRBLK
  1

  9
$DIMLUNIT
 70
2
  9
$DIMLWD
 70
-2
  9
$DIMLWE
 70
-2
  9
$DIMTMOVE
 70
0
  9
$DIMFXL
 40
1.0
  9
$DIMFXLON
 70
0
  9
$DIMJOGANG
 40
0.785398163397
  9
$DIMTFILL
 70
0
  9
$DIMTFILLCLR
 70
0
  9
$DIMARCSYM
 70
0
  9
$DIMLTYPE
  6

  9
$DIMLTEX1
  6

  9
$DIMLTEX2
  6

  9
$DIMTXTDIRECTION
 70
0
  9
$LUNITS
 70
2
  9
$LUPREC
 70
4
  9
$SKETCHINC
 40
1.0
  9
$FILLETRAD
 40
10.0
  9
$AUNITS
 70
0
  9
$AUPREC
 70
2
  9
$MENU
  1
.
  9
$ELEVATION
 40
0.0
  9
$PELEVATION
 40
0.0
  9
$THICKNESS
 40
0.0
  9
$LIMCHECK
 70
0
  9
$CHAMFERA
 40
0.0
  9
$CHAMFERB
 40
0.0
  9
$CHAMFERC
 40
0.0
  9
$CHAMFERD
 40
0.0
  9
$SKPOLY
 70
0
  9
$TDCREATE
 40
2461312.7807060187
  9
$TDUCREATE
 40
2458532.153996898
  9
$TDUPDATE
 40
2461312.7807060187
  9
$TDUUPDATE
 40
2458532.1544311
  9
$TDINDWG
 40
0.0
  9
$TDUSRTIMER
 40
0.0
  9
$USRTIMER
 70
1
  9
$ANGBASE
 50
0.0
  9
$ANGDIR
 70
0
  9
$PDMODE
 70
0
  9
$PDSIZE
 40
0.0
  9
$PLINEWID
 40
0.0
  9
$SPLFRAME
 70
0
  9
$SPLINETYPE
 70
6
  9
$SPLINESEGS
 70
8
  9
$HANDSEED
  5
11A
  9
$SURFTAB1
 70
6
  9
$SURFTAB2
 70
6
  9
$SURFTYPE
 70
6
  9
$SURFU
 70
6
  9
$SURFV
 70
6
  9
$UCSBASE
  2

  9
$UCSNAME
  2

  9
$UCSORG
 10
0.0
 20
0.0
 30
0.0
  9
$UCSXDIR
 10
1.0
 20
0.0
 30
0.0
  9
$UCSYDIR
 10
0.0
 20
1.0
 30
0.0
  9
$UCSORTHOREF
  2

  9
$UCSORTHOVIEW
 70
0
  9
$UCSORGTOP
 10
0.0
 20
0.0
 30
0.0
  9
$UCSORGBOTTOM
 10
0.0
 20
0.0
 30
0.0
  9
$UCSORGLEFT
 10
0.0
 20
0.0
 30
0.0
  9
$UCSORGRIGHT
 10
0.0
 20
0.0
 30
0.0
  9
$UCSORGFRONT
 10
0.0
 20
0.0
 30
0.0
  9
$UCSORGBACK
 10
0.0
 20
0.0
 30
0.0
  9
$PUCSBASE
  2

  9
$PUCSNAME
  2

  9
$PUCSORG
 10
0.0
 20
0.0
 30
0.0
  9
$PUCSXDIR
 10
1.0
 20
0.0
 30
0.0
  9
$PUCSYDIR
 10
0.0
 20
1.0
 30
0.0
  9
$PUCSORTHOREF
  2

  9
$PUCSORTHOVIEW
 70
0
  9
$PUCSORGTOP
 10
0.0
 20
0.0
 30
0.0
  9
$PUCSORGBOTTOM
 10
0.0
 20
0.0
 30
0.0
  9
$PUCSORGLEFT
 10
0.0
 20
0.0
 30
0.0
  9
$PUCSORGRIGHT
 10
0.0
 20
0.0
 30
0.0
  9
$PUCSORGFRONT
 10
0.0
 20
0.0
 30
0.0
  9
$PUCSORGBACK
 10
0.0
 20
0.0
 30
0.0
  9
$USERI1
 70
0
  9
$USERI2
 70
0
  9
$USERI3
 70
0
  9
$USERI4
 70
0
  9
$USERI5
 70
0
  9
$USERR1
 40
0.0
  9
$USERR2
 40
0.0
  9
$USERR3
 40
0.0
  9
$USERR4
 40
0.0
  9
$USERR5
 40
0.0
  9
$WORLDVIEW
 70
1
  9
$SHADEDGE
 70
3
  9
$SHADEDIF
 70
70
  9
$TILEMODE
 70
1
  9
$MAXACTVP
 70
64
  9
$PINSBASE
 10
0.0
 20
0.0
 30
0.0
  9
$PLIMCHECK
 70
0
  9
$PEXTMIN
 10
1e+20
 20
1e+20
 30
1e+20
  9
$PEXTMAX
 10
-1e+20
 20
-1e+20
 30
-1e+20
  9
$PLIMMIN
 10
0.0
 20
0.0
  9
$PLIMMAX
 10
420.0
 20
297.0
  9
$UNITMODE
 70
0
  9
$VISRETAIN
 70
1
  9
$PLINEGEN
 70
0
  9
$PSLTSCALE
 70
1
  9
$TREEDEPTH
 70
3020
  9
$CMLSTYLE
  2
Standard
  9
$CMLJUST
 70
0
  9
$CMLSCALE
 40
20.0
  9
$PROXYGRAPHICS
 70
1
  9
$MEASUREMENT
 70
1
  9
$CELWEIGHT
370
-1
  9
$ENDCAPS
280
0
  9
$JOINSTYLE
280
0
  9
$LWDISPLAY
290
0
  9
$INSUNITS
 70
6
  9
$HYPERLINKBASE
  1

  9
$STYLESHEET
  1

  9
$XEDIT
290
1
  9
$CEPSNTYPE
380
0
  9
$PSTYLEMODE
290
1
  9
$FINGERPRINTGUID
  2
{AFFBEE2F-993F-43D6-869F-CC00DD34894B}
  9
$VERSIONGUID
  2
{8FC21464-90FE-429C-BF71-8C779E1A9540}
  9
$EXTNAMES
290
1
  9
$PSVPSCALE
 40
0.0
  9
$OLESTARTUP
290
0
  9
$SORTENTS
280
127
  9
$INDEXCTL
280
0
  9
$HIDETEXT
280
1
  9
$XCLIPFRAME
280
1
  9
$HALOGAP
280
0
  9
$OBSCOLOR
 70
257
  9
$OBSLTYPE
280
0
  9
$INTERSECTIONDISPLAY
280
0
  9
$INTERSECTIONCOLOR
 70
257
  9
$DIMASSOC
280
2
  9
$PROJECTNAME
  1

  9
$CAMERADISPLAY
290
0
  9
$LENSLENGTH
 40
50.0
  9
$CAMERAHEIGHT
 40
0.0
  9
$STEPSPERSEC
 40
24.0
  9
$STEPSIZE
 40
100.0
  9
$3DDWFPREC
 40
2.0
  9
$PSOLWIDTH
 40
0.005
  9
$PSOLHEIGHT
 40
0.08
  9
$LOFTANG1
 40
1.570796326795
  9
$LOFTANG2
 40
1.570796326795
  9
$LOFTMAG1
 40
0.0
  9
$LOFTMAG2
 40
0.0
  9
$LOFTPARAM
 70
7
  9
$LOFTNORMALS
280
1
  9
$LATITUDE
 40
37.795
  9
$LONGITUDE
 40
-122.394
  9
$NORTHDIRECTION
 40
0.0
  9
$TIMEZONE
 70
-8000
  9
$LIGHTGLYPHDISPLAY
280
1
  9
$TILEMODELIGHTSYNCH
280
1
  9
$CMATERIAL
347
20
  9
$SOLIDHIST
280
0
  9
$SHOWHIST
280
1
  9
$DWFFRAME
280
2
  9
$DGNFRAME
280
2
  9
$REALWORLDSCALE
290
1
  9
$INTERFERECOLOR
 62
256
  9
$CSHADOW
280
0
  9
$SHADOWPLANELOCATION
 40
0.0
  0
ENDSEC
  0
SECTION
  2
CLASSES
  0
CLASS
  1
ACDBDICTIONARYWDFLT
  2
AcDbDictionaryWithDefault
  3
ObjectDBX Classes
 90
0
 91
0
280
0
281
0
  0
CLASS
  1
SUN
  2
AcDbSun
  3
SCENEOE
 90
1153
 91
0
280
0
281
0
  0
CLASS
  1
VISUALSTYLE
  2
AcDbVisualStyle
  3
ObjectDBX Classes
 90
4095
 91
0
280
0
281
0
  0
CLASS
  1
MATERIAL
  2
AcDbMaterial
  3
ObjectDBX Classes
 90
1153
 91
0
280
0
281
0
  0
CLASS
  1
SCALE
  2
AcDbScale
  3
ObjectDBX Classes
 90
1153
 91
0
280
0
281
0
  0
CLASS
  1
TABLESTYLE
  2
AcDbTableStyle
  3
ObjectDBX Classes
 90
4095
 91
0
280
0
281
0
  0
CLASS
  1
MLEADERSTYLE
  2
AcDbMLeaderStyle
  3
ACDB_MLEADERSTYLE_CLASS
 90
4095
 91
0
280
0
281
0
  0
CLASS
  1
DICTIONARYVAR
  2
AcDbDictionaryVar
  3
ObjectDBX Classes
 90
0
 91
0
280
0
281
0
  0
CLASS
  1
CELLSTYLEMAP
  2
AcDbCellStyleMap
  3
ObjectDBX Classes
 90
1152
 91
0
280
0
281
0
  0
CLASS
  1
MENTALRAYRENDERSETTINGS
  2
AcDbMentalRayRenderSettings
  3
SCENEOE
 90
1024
 91
0
280
0
281
0
  0
CLASS
  1
ACDBDETAILVIEWSTYLE
  2
AcDbDetailViewStyle
  3
ObjectDBX Classes
 90
1025
 91
0
280
0
281
0
  0
CLASS
  1
ACDBSECTIONVIEWSTYLE
  2
AcDbSectionViewStyle
  3
ObjectDBX Classes
 90
1025
 91
0
280
0
281
0
  0
CLASS
  1
RASTERVARIABLES
  2
AcDbRasterVariables
  3
ISM
 90
0
 91
0
280
0
281
0
  0
CLASS
  1
LAYOUT
  2
AcDbLayout
  3
ObjectDBX Classes
 90
0
 91
0
280
0
281
0
  0
CLASS
  1
ACDBPLACEHOLDER
  2
AcDbPlaceHolder
  3
ObjectDBX Classes
 90
0
 91
0
280
0
281
0
  0
ENDSEC
  0
SECTION
  2
TABLES
  0
TABLE
  2
VPORT
  5
8
330
0
100
AcDbSymbolTable
 70
1
  0
VPORT
  5
23
330
8
100
AcDbSymbolTableRecord
100
AcDbViewportTableRecord
  2
*Active
 70
0
 10
0.0
 20
0.0
 11
1.0
 21
1.0
 12
0.0
 22
0.0
 13
0.0
 23
0.0
 14
0.5
 24
0.5
 15
0.5
 25
0.5
 16
0.0
 26
0.0
 36
1.0
 17
0.0
 27
0.0
 37
0.0
 40
1000.0
 41
1.34
 42
50.0
 43
0.0
 44
0.0
 50
0.0
 51
0.0
 71
0
 72
1000
 73
1
 74
3
 75
0
 76
0
 77
0
 78
0
281
0
 65
0
146
0.0
  0
ENDTAB
  0
TABLE
  2
LTYPE
  5
2
330
0
100
AcDbSymbolTable
 70
3
  0
LTYPE
  5
24
330
2
100
AcDbSymbolTableRecord
100
AcDbLinetypeTableRecord
  2
ByBlock
 70
0
  3

 72
65
 73
0
 40
0.0
  0
LTYPE
  5
25
330
2
100
AcDbSymbolTableRecord
100
AcDbLinetypeTableRecord
  2
ByLayer
 70
0
  3

 72
65
 73
0
 40
0.0
  0
LTYPE
  5
26
330
2
100
AcDbSymbolTableRecord
100
AcDbLinetypeTableRecord
  2
Continuous
 70
0
  3

 72
65
 73
0
 40
0.0
  0
ENDTAB
  0
TABLE
  2
LAYER
  5
1
330
0
100
AcDbSymbolTable
 70
11
  0
LAYER
  5
27
330
1
100
AcDbSymbolTableRecord
100
AcDbLayerTableRecord
  2
0
 70
0
 62
7
  6
Continuous
370
-3
390
13
347
21
  0
LAYER
  5
28
330
1
100
AcDbSymbolTableRecord
100
AcDbLayerTableRecord
  2
Defpoints
 70
0
 62
7
  6
Continuous
290
0
370
-3
390
13
347
21
  0
LAYER
  5
2F
330
1
100
AcDbSymbolTableRecord
100
AcDbLayerTableRecord
  2
BOUNDARY
 70
0
 62
7
  6
Continuous
370
-3
390
13
347
21
  0
LAYER
  5
30
330
1
100
AcDbSymbolTableRecord
100
AcDbLayerTableRecord
  2
BUILDINGS
 70
0
 62
5
  6
Continuous
370
-3
390
13
347
21
  0
LAYER
  5
31
330
1
100
AcDbSymbolTableRecord
100
AcDbLayerTableRecord
  2
ROADS
 70
0
 62
8
  6
Continuous
370
-3
390
13
347
21
  0
LAYER
  5
32
330
1
100
AcDbSymbolTableRecord
100
AcDbLayerTableRecord
  2
WATER_PIPE
 70
0
 62
1
  6
Continuous
370
-3
390
13
347
21
  0
LAYER
  5
33
330
1
100
AcDbSymbolTableRecord
100
AcDbLayerTableRecord
  2
TREES_EXIST
 70
0
 62
3
  6
Continuous
370
-3
390
13
347
21
  0
LAYER
  5
3E
330
1
100
AcDbSymbolTableRecord
100
AcDbLayerTableRecord
  2
GREEN_AI_TREES
 70
0
 62
3
  6
Continuous
370
-3
390
13
347
21
  0
LAYER
  5
3F
330
1
100
AcDbSymbolTableRecord
100
AcDbLayerTableRecord
  2
GREEN_AI_SHRUBS
 70
0
 62
6
  6
Continuous
370
-3
390
13
347
21
  0
LAYER
  5
40
330
1
100
AcDbSymbolTableRecord
100
AcDbLayerTableRecord
  2
GREEN_AI_ZONES_ALLOWED
 70
0
 62
4
  6
Continuous
370
-3
390
13
347
21
  0
LAYER
  5
41
330
1
100
AcDbSymbolTableRecord
100
AcDbLayerTableRecord
  2
GREEN_AI_ZONES_FORBIDDEN
 70
0
 62
1
  6
Continuous
370
-3
390
13
347
21
  0
ENDTAB
  0
TABLE
  2
STYLE
  5
5
330
0
100
AcDbSymbolTable
 70
1
  0
STYLE
  5
29
330
5
100
AcDbSymbolTableRecord
100
AcDbTextStyleTableRecord
  2
Standard
 70
0
 40
0.0
 41
1.0
 50
0.0
 71
0
 42
2.5
  3
txt
  4

  0
ENDTAB
  0
TABLE
  2
VIEW
  5
7
330
0
100
AcDbSymbolTable
 70
0
  0
ENDTAB
  0
TABLE
  2
UCS
  5
6
330
0
100
AcDbSymbolTable
 70
0
  0
ENDTAB
  0
TABLE
  2
APPID
  5
3
330
0
100
AcDbSymbolTable
 70
3
  0
APPID
  5
2A
330
3
100
AcDbSymbolTableRecord
100
AcDbRegAppTableRecord
  2
ACAD
 70
0
  0
APPID
  5
3B
330
3
100
AcDbSymbolTableRecord
100
AcDbRegAppTableRecord
  2
HATCHBACKGROUNDCOLOR
 70
0
  0
APPID
  5
3C
330
3
100
AcDbSymbolTableRecord
100
AcDbRegAppTableRecord
  2
EZDXF
 70
0
  0
ENDTAB
  0
TABLE
  2
DIMSTYLE
  5
4
330
0
100
AcDbSymbolTable
 70
1
100
AcDbDimStyleTable
  0
DIMSTYLE
105
2B
330
4
100
AcDbSymbolTableRecord
100
AcDbDimStyleTableRecord
  2
Standard
 70
0
 40
1.0
 41
2.5
 42
0.625
 43
3.75
 44
1.25
 45
0.0
 46
0.0
 47
0.0
 48
0.0
 49
2.5
140
2.5
141
2.5
142
0.0
143
0.03937007874
144
1.0
145
0.0
146
1.0
147
0.625
148
0.0
 69
0
 70
0
 71
0
 72
0
 73
0
 74
0
 75
0
 76
0
 77
1
 78
8
 79
3
170
0
171
3
172
1
173
0
174
0
175
0
176
0
177
0
178
0
179
2
271
2
272
2
273
2
274
3
275
0
276
0
277
2
278
44
279
0
280
0
281
0
282
0
283
0
284
8
285
0
286
0
288
0
289
3
290
0
371
-2
372
-2
  0
ENDTAB
  0
TABLE
  2
BLOCK_RECORD
  5
9
330
0
100
AcDbSymbolTable
 70
2
  0
BLOCK_RECORD
  5
17
330
9
100
AcDbSymbolTableRecord
100
AcDbBlockTableRecord
  2
*Model_Space
340
1A
 70
0
280
1
281
0
  0
BLOCK_RECORD
  5
1B
330
9
100
AcDbSymbolTableRecord
100
AcDbBlockTableRecord
  2
*Paper_Space
340
1E
 70
0
280
1
281
0
  0
ENDTAB
  0
ENDSEC
  0
SECTION
  2
BLOCKS
  0
BLOCK
  5
18
330
17
100
AcDbEntity
  8
0
100
AcDbBlockBegin
  2
*Model_Space
 70
0
 10
0.0
 20
0.0
 30
0.0
  3
*Model_Space
  1

  0
ENDBLK
  5
19
330
17
100
AcDbEntity
  8
0
100
AcDbBlockEnd
  0
BLOCK
  5
1C
330
1B
100
AcDbEntity
  8
0
100
AcDbBlockBegin
  2
*Paper_Space
 70
0
 10
0.0
 20
0.0
 30
0.0
  3
*Paper_Space
  1

  0
ENDBLK
  5
1D
330
1B
100
AcDbEntity
  8
0
100
AcDbBlockEnd
  0
ENDSEC
  0
SECTION
  2
ENTITIES
  0
LWPOLYLINE
  5
34
330
17
100
AcDbEntity
  8
BOUNDARY
100
AcDbPolyline
 90
4
 70
1
 10
0.0
 20
0.0
 10
100.0
 20
0.0
 10
100.0
 20
60.0
 10
0.0
 20
60.0
  0
LWPOLYLINE
  5
35
330
17
100
AcDbEntity
  8
BUILDINGS
100
AcDbPolyline
 90
4
 70
1
 10
10.0
 20
10.0
 10
30.0
 20
10.0
 10
30.0
 20
25.0
 10
10.0
 20
25.0
  0
LWPOLYLINE
  5
36
330
17
100
AcDbEntity
  8
BUILDINGS
100
AcDbPolyline
 90
4
 70
1
 10
60.0
 20
40.0
 10
85.0
 20
40.0
 10
85.0
 20
55.0
 10
60.0
 20
55.0
  0
LWPOLYLINE
  5
37
330
17
100
AcDbEntity
  8
ROADS
100
AcDbPolyline
 90
4
 70
1
 10
0.0
 20
30.0
 10
100.0
 20
30.0
 10
100.0
 20
36.0
 10
0.0
 20
36.0
  0
LINE
  5
38
330
17
100
AcDbEntity
  8
WATER_PIPE
100
AcDbLine
 10
0.0
 20
45.0
 30
0.0
 11
100.0
 21
48.0
 31
0.0
  0
CIRCLE
  5
39
330
17
100
AcDbEntity
  8
TREES_EXIST
100
AcDbCircle
 10
50.0
 20
20.0
 30
0.0
 40
2.0
  0
CIRCLE
  5
3A
330
17
100
AcDbEntity
  8
TREES_EXIST
100
AcDbCircle
 10
60.0
 20
22.0
 30
0.0
 40
2.0
  0
CIRCLE
  5
42
330
17
100
AcDbEntity
  8
GREEN_AI_TREES
100
AcDbCircle
 10
63.94
 20
1.5
 30
0.0
 40
3.0
  0
TEXT
  5
43
330
17
100
AcDbEntity
  8
GREEN_AI_TREES
100
AcDbText
 10
66.03999999999999
 20
3.5999999999999996
 30
0.0
 40
1.0
  1
T-001
100
AcDbText
  0
CIRCLE
  5
44
330
17
100
AcDbEntity
  8
GREEN_AI_TREES
100
AcDbCircle
 10
89.22
 20
5.22
 30
0.0
 40
3.0
  0
TEXT
  5
45
330
17
100
AcDbEntity
  8
GREEN_AI_TREES
100
AcDbText
 10
91.32
 20
7.319999999999999
 30
0.0
 40
1.0
  1
T-002
100
AcDbText
  0
CIRCLE
  5
46
330
17
100
AcDbEntity
  8
GREEN_AI_TREES
100
AcDbCircle
 10
42.19
 20
1.79
 30
0.0
 40
3.0
  0
TEXT
  5
47
330
17
100
AcDbEntity
  8
GREEN_AI_TREES
100
AcDbText
 10
44.29
 20
3.8899999999999997
 30
0.0
 40
1.0
  1
T-003
100
AcDbText
  0
CIRCLE
  5
48
330
17
100
AcDbEntity
  8
GREEN_AI_TREES
100
AcDbCircle
 10
2.65
 20
11.93
 30
0.0
 40
3.0
  0
TEXT
  5
49
330
17
100
AcDbEntity
  8
GREEN_AI_TREES
100
AcDbText
 10
4.75
 20
14.03
 30
0.0
 40
1.0
  1
T-004
100
AcDbText
  0
CIRCLE
  5
4A
330
17
100
AcDbEntity
  8
GREEN_AI_TREES
100
AcDbCircle
 10
80.94
 20
0.39
 30
0.0
 40
3.0
  0
TEXT
  5
4B
330
17
100
AcDbEntity
  8
GREEN_AI_TREES
100
AcDbText
 10
83.03999999999999
 20
2.4899999999999998
 30
0.0
 40
1.0
  1
T-005
100
AcDbText
  0
CIRCLE
  5
4C
330
17
100
AcDbEntity
  8
GREEN_AI_TREES
100
AcDbCircle
 10
95.72
 20
20.2
 30
0.0
 40
3.0
  0
TEXT
  5
4D
330
17
100
AcDbEntity
  8
GREEN_AI_TREES
100
AcDbText
 10
97.82
 20
22.299999999999997
 30
0.0
 40
1.0
  1
T-006
100
AcDbText
  0
CIRCLE
  5
4E
330
17
100
AcDbEntity
  8
GREEN_AI_TREES
100
AcDbCircle
 10
53.62
 20
58.39
 30
0.0
 40
3.0
  0
TEXT
  5
4F
330
17
100
AcDbEntity
  8
GREEN_AI_TREES
100
AcDbText
 10
55.72
 20
60.49
 30
0.0
 40
1.0
  1
T-007
100
AcDbText
  0
CIRCLE
  5
50
330
17
100
AcDbEntity
  8
GREEN_AI_TREES
100
AcDbCircle
 10
70.46
 20
2.75
 30
0.0
 40
3.0
  0
TEXT
  5
51
330
17
100
AcDbEntity
  8
GREEN_AI_TREES
100
AcDbText
 10
72.55999999999999
 20
4.85
 30
0.0
 40
1.0
  1
T-008
100
AcDbText
  0
CIRCLE
  5
52
330
17
100
AcDbEntity
  8
GREEN_AI_TREES
100
AcDbCircle
 10
63.57
 20
21.89
 30
0.0
 40
3.0
  0
TEXT
  5
53
330
17
100
AcDbEntity
  8
GREEN_AI_TREES
100
AcDbText
 10
65.67
 20
23.990000000000002
 30
0.0
 40
1.0
  1
T-009
100
AcDbText
  0
CIRCLE
  5
54
330
17
100
AcDbEntity
  8
GREEN_AI_TREES
100
AcDbCircle
 10
37.02
 20
12.57
 30
0.0
 40
3.0
  0
TEXT
  5
55
330
17
100
AcDbEntity
  8
GREEN_AI_TREES
100
AcDbText
 10
39.120000000000005
 20
14.67
 30
0.0
 40
1.0
  1
T-010
100
AcDbText
  0
CIRCLE
  5
56
330
17
100
AcDbEntity
  8
GREEN_AI_TREES
100
AcDbCircle
 10
26.7
 20
56.2
 30
0.0
 40
3.0
  0
TEXT
  5
57
330
17
100
AcDbEntity
  8
GREEN_AI_TREES
100
AcDbText
 10
28.799999999999997
 20
58.300000000000004
 30
0.0
 40
1.0
  1
T-011
100
AcDbText
  0
CIRCLE
  5
58
330
17
100
AcDbEntity
  8
GREEN_AI_TREES
100
AcDbCircle
 10
22.9
 20
1.93
 30
0.0
 40
3.0
  0
TEXT
  5
59
330
17
100
AcDbEntity
  8
GREEN_AI_TREES
100
AcDbText
 10
25.0
 20
4.029999999999999
 30
0.0
 40
1.0
  1
T-012
100
AcDbText
  0
CIRCLE
  5
5A
330
17
100
AcDbEntity
  8
GREEN_AI_TREES
100
AcDbCircle
 10
21.1
 20
56.57
 30
0.0
 40
3.0
  0
TEXT
  5
5B
330
17
100
AcDbEntity
  8
GREEN_AI_TREES
100
AcDbText
 10
23.200000000000003
 20
58.67
 30
0.0
 40
1.0
  1
T-013
100
AcDbText
  0
CIRCLE
  5
5C
330
17
100
AcDbEntity
  8
GREEN_AI_TREES
100
AcDbCircle
 10
87.64
 20
18.88
 30
0.0
 40
3.0
  0
TEXT
  5
5D
330
17
100
AcDbEntity
  8
GREEN_AI_TREES
100
AcDbText
 10
89.74
 20
20.979999999999997
 30
0.0
 40
1.0
  1
T-014
100
AcDbText
  0
CIRCLE
  5
5E
330
17
100
AcDbEntity
  8
GREEN_AI_TREES
100
AcDbCircle
 10
56.14
 20
15.76
 30
0.0
 40
3.0
  0
TEXT
  5
5F
330
17
100
AcDbEntity
  8
GREEN_AI_TREES
100
AcDbText
 10
58.24
 20
17.86
 30
0.0
 40
1.0
  1
T-015
100
AcDbText
  0
CIRCLE
  5
60
330
17
100
AcDbEntity
  8
GREEN_AI_TREES
100
AcDbCircle
 10
9.09
 20
2.83
 30
0.0
 40
3.0
  0
TEXT
  5
61
330
17
100
AcDbEntity
  8
GREEN_AI_TREES
100
AcDbText
 10
11.19
 20
4.93
 30
0.0
 40
1.0
  1
T-016
100
AcDbText
  0
CIRCLE
  5
62
330
17
100
AcDbEntity
  8
GREEN_AI_TREES
100
AcDbCircle
 10
45.37
 20
57.23
 30
0.0
 40
3.0
  0
TEXT
  5
63
330
17
100
AcDbEntity
  8
GREEN_AI_TREES
100
AcDbText
 10
47.47
 20
59.33
 30
0.0
 40
1.0
  1
T-017
100
AcDbText
  0
CIRCLE
  5
64
330
17
100
AcDbEntity
  8
GREEN_AI_TREES
100
AcDbCircle
 10
50.06
 20
10.72
 30
0.0
 40
3.0
  0
TEXT
  5
65
330
17
100
AcDbEntity
  8
GREEN_AI_TREES
100
AcDbText
 10
52.160000000000004
 20
12.82
 30
0.0
 40
1.0
  1
T-018
100
AcDbText
  0
CIRCLE
  5
66
330
17
100
AcDbEntity
  8
GREEN_AI_TREES
100
AcDbCircle
 10
60.9
 20
9.17
 30
0.0
 40
3.0
  0
TEXT
  5
67
330
17
100
AcDbEntity
  8
GREEN_AI_TREES
100
AcDbText
 10
63.0
 20
11.27
 30
0.0
 40
1.0
  1
T-019
100
AcDbText
  0
CIRCLE
  5
68
330
17
100
AcDbEntity
  8
GREEN_AI_TREES
100
AcDbCircle
 10
0.06
 20
19.45
 30
0.0
 40
3.0
  0
TEXT
  5
69
330
17
100
AcDbEntity
  8
GREEN_AI_TREES
100
AcDbText
 10
2.1599999999999997
 20
21.549999999999997
 30
0.0
 40
1.0
  1
T-020
100
AcDbText
  0
CIRCLE
  5
6A
330
17
100
AcDbEntity
  8
GREEN_AI_TREES
100
AcDbCircle
 10
1.95
 20
55.75
 30
0.0
 40
3.0
  0
TEXT
  5
6B
330
17
100
AcDbEntity
  8
GREEN_AI_TREES
100
AcDbText
 10
4.05
 20
57.85
 30
0.0
 40
1.0
  1
T-021
100
AcDbText
  0
CIRCLE
  5
6C
330
17
100
AcDbEntity
  8
GREEN_AI_TREES
100
AcDbCircle
 10
30.75
 20
3.48
 30
0.0
 40
3.0
  0
TEXT
  5
6D
330
17
100
AcDbEntity
  8
GREEN_AI_TREES
100
AcDbText
 10
32.85
 20
5.58
 30
0.0
 40
1.0
  1
T-022
100
AcDbText
  0
CIRCLE
  5
6E
330
17
100
AcDbEntity
  8
GREEN_AI_TREES
100
AcDbCircle
 10
76.58
 20
7.7
 30
0.0
 40
3.0
  0
TEXT
  5
6F
330
17
100
AcDbEntity
  8
GREEN_AI_TREES
100
AcDbText
 10
78.67999999999999
 20
9.8
 30
0.0
 40
1.0
  1
T-023
100
AcDbText
  0
CIRCLE
  5
70
330
17
100
AcDbEntity
  8
GREEN_AI_TREES
100
AcDbCircle
 10
42.31
 20
12.71
 30
0.0
 40
3.0
  0
TEXT
  5
71
330
17
100
AcDbEntity
  8
GREEN_AI_TREES
100
AcDbText
 10
44.410000000000004
 20
14.81
 30
0.0
 40
1.0
  1
T-024
100
AcDbText
  0
CIRCLE
  5
72
330
17
100
AcDbEntity
  8
GREEN_AI_TREES
100
AcDbCircle
 10
80.75
 20
11.42
 30
0.0
 40
3.0
  0
TEXT
  5
73
330
17
100
AcDbEntity
  8
GREEN_AI_TREES
100
AcDbText
 10
82.85
 20
13.52
 30
0.0
 40
1.0
  1
T-025
100
AcDbText
  0
CIRCLE
  5
74
330
17
100
AcDbEntity
  8
GREEN_AI_TREES
100
AcDbCircle
 10
98.42
 20
5.91
 30
0.0
 40
3.0
  0
TEXT
  5
75
330
17
100
AcDbEntity
  8
GREEN_AI_TREES
100
AcDbText
 10
100.52
 20
8.01
 30
0.0
 40
1.0
  1
T-026
100
AcDbText
  0
CIRCLE
  5
76
330
17
100
AcDbEntity
  8
GREEN_AI_TREES
100
AcDbCircle
 10
40.26
 20
20.36
 30
0.0
 40
3.0
  0
TEXT
  5
77
330
17
100
AcDbEntity
  8
GREEN_AI_TREES
100
AcDbText
 10
42.36
 20
22.46
 30
0.0
 40
1.0
  1
T-027
100
AcDbText
  0
CIRCLE
  5
78
330
17
100
AcDbEntity
  8
GREEN_AI_TREES
100
AcDbCircle
 10
44.31
 20
51.68
 30
0.0
 40
3.0
  0
TEXT
  5
79
330
17
100
AcDbEntity
  8
GREEN_AI_TREES
100
AcDbText
 10
46.410000000000004
 20
53.78
 30
0.0
 40
1.0
  1
T-028
100
AcDbText
  0
CIRCLE
  5
7A
330
17
100
AcDbEntity
  8
GREEN_AI_TREES
100
AcDbCircle
 10
55.03
 20
3.04
 30
0.0
 40
3.0
  0
TEXT
  5
7B
330
17
100
AcDbEntity
  8
GREEN_AI_TREES
100
AcDbText
 10
57.13
 20
5.14
 30
0.0
 40
1.0
  1
T-029
100
AcDbText
  0
CIRCLE
  5
7C
330
17
100
AcDbEntity
  8
GREEN_AI_TREES
100
AcDbCircle
 10
96.9
 20
55.58
 30
0.0
 40
3.0
  0
TEXT
  5
7D
330
17
100
AcDbEntity
  8
GREEN_AI_TREES
100
AcDbText
 10
99.0
 20
57.68
 30
0.0
 40
1.0
  1
T-030
100
AcDbText
  0
CIRCLE
  5
7E
330
17
100
AcDbEntity
  8
GREEN_AI_TREES
100
AcDbCircle
 10
37.9
 20
59.12
 30
0.0
 40
3.0
  0
TEXT
  5
7F
330
17
100
AcDbEntity
  8
GREEN_AI_TREES
100
AcDbText
 10
40.0
 20
61.22
 30
0.0
 40
1.0
  1
T-031
100
AcDbText
  0
CIRCLE
  5
80
330
17
100
AcDbEntity
  8
GREEN_AI_TREES
100
AcDbCircle
 10
15.74
 20
57.65
 30
0.0
 40
3.0
  0
TEXT
  5
81
330
17
100
AcDbEntity
  8
GREEN_AI_TREES
100
AcDbText
 10
17.84
 20
59.75
 30
0.0
 40
1.0
  1
T-032
100
AcDbText
  0
CIRCLE
  5
82
330
17
100
AcDbEntity
  8
GREEN_AI_TREES
100
AcDbCircle
 10
67.17
 20
18.0
 30
0.0
 40
3.0
  0
TEXT
  5
83
330
17
100
AcDbEntity
  8
GREEN_AI_TREES
100
AcDbText
 10
69.27
 20
20.1
 30
0.0
 40
1.0
  1
T-033
100
AcDbText
  0
CIRCLE
  5
84
330
17
100
AcDbEntity
  8
GREEN_AI_TREES
100
AcDbCircle
 10
99.85
 20
59.77
 30
0.0
 40
3.0
  0
TEXT
  5
85
330
17
100
AcDbEntity
  8
GREEN_AI_TREES
100
AcDbText
 10
101.94999999999999
 20
61.870000000000005
 30
0.0
 40
1.0
  1
T-034
100
AcDbText
  0
CIRCLE
  5
86
330
17
100
AcDbEntity
  8
GREEN_AI_TREES
100
AcDbCircle
 10
81.71
 20
17.96
 30
0.0
 40
3.0
  0
TEXT
  5
87
330
17
100
AcDbEntity
  8
GREEN_AI_TREES
100
AcDbText
 10
83.80999999999999
 20
20.060000000000002
 30
0.0
 40
1.0
  1
T-035
100
AcDbText
  0
CIRCLE
  5
88
330
17
100
AcDbEntity
  8
GREEN_AI_TREES
100
AcDbCircle
 10
71.76
 20
12.22
 30
0.0
 40
3.0
  0
TEXT
  5
89
330
17
100
AcDbEntity
  8
GREEN_AI_TREES
100
AcDbText
 10
73.86
 20
14.32
 30
0.0
 40
1.0
  1
T-036
100
AcDbText
  0
CIRCLE
  5
8A
330
17
100
AcDbEntity
  8
GREEN_AI_TREES
100
AcDbCircle
 10
7.52
 20
52.99
 30
0.0
 40
3.0
  0
TEXT
  5
8B
330
17
100
AcDbEntity
  8
GREEN_AI_TREES
100
AcDbText
 10
9.62
 20
55.09
 30
0.0
 40
1.0
  1
T-037
100
AcDbText
  0
CIRCLE
  5
8C
330
17
100
AcDbEntity
  8
GREEN_AI_TREES
100
AcDbCircle
 10
89.89
 20
12.6
 30
0.0
 40
3.0
  0
TEXT
  5
8D
330
17
100
AcDbEntity
  8
GREEN_AI_TREES
100
AcDbText
 10
91.99
 20
14.7
 30
0.0
 40
1.0
  1
T-038
100
AcDbText
  0
CIRCLE
  5
8E
330
17
100
AcDbEntity
  8
GREEN_AI_TREES
100
AcDbCircle
 10
33.22
 20
55.85
 30
0.0
 40
3.0
  0
TEXT
  5
8F
330
17
100
AcDbEntity
  8
GREEN_AI_TREES
100
AcDbText
 10
35.32
 20
57.95
 30
0.0
 40
1.0
  1
T-039
100
AcDbText
  0
CIRCLE
  5
90
330
17
100
AcDbEntity
  8
GREEN_AI_TREES
100
AcDbCircle
 10
46.03
 20
18.31
 30
0.0
 40
3.0
  0
TEXT
  5
91
330
17
100
AcDbEntity
  8
GREEN_AI_TREES
100
AcDbText
 10
48.13
 20
20.409999999999997
 30
0.0
 40
1.0
  1
T-040
100
AcDbText
  0
CIRCLE
  5
92
330
17
100
AcDbEntity
  8
GREEN_AI_TREES
100
AcDbCircle
 10
97.04
 20
10.71
 30
0.0
 40
3.0
  0
TEXT
  5
93
330
17
100
AcDbEntity
  8
GREEN_AI_TREES
100
AcDbText
 10
99.14
 20
12.81
 30
0.0
 40
1.0
  1
T-041
100
AcDbText
  0
CIRCLE
  5
94
330
17
100
AcDbEntity
  8
GREEN_AI_TREES
100
AcDbCircle
 10
72.85
 20
18.82
 30
0.0
 40
3.0
  0
TEXT
  5
95
330
17
100
AcDbEntity
  8
GREEN_AI_TREES
100
AcDbText
 10
74.94999999999999
 20
20.92
 30
0.0
 40
1.0
  1
T-042
100
AcDbText
  0
CIRCLE
  5
96
330
17
100
AcDbEntity
  8
GREEN_AI_TREES
100
AcDbCircle
 10
36.42
 20
4.2
 30
0.0
 40
3.0
  0
TEXT
  5
97
330
17
100
AcDbEntity
  8
GREEN_AI_TREES
100
AcDbText
 10
38.52
 20
6.3
 30
0.0
 40
1.0
  1
T-043
100
AcDbText
  0
CIRCLE
  5
98
330
17
100
AcDbEntity
  8
GREEN_AI_TREES
100
AcDbCircle
 10
24.92
 20
50.9
 30
0.0
 40
3.0
  0
TEXT
  5
99
330
17
100
AcDbEntity
  8
GREEN_AI_TREES
100
AcDbText
 10
27.020000000000003
 20
53.0
 30
0.0
 40
1.0
  1
T-044
100
AcDbText
  0
CIRCLE
  5
9A
330
17
100
AcDbEntity
  8
GREEN_AI_TREES
100
AcDbCircle
 10
76.12
 20
22.75
 30
0.0
 40
3.0
  0
TEXT
  5
9B
330
17
100
AcDbEntity
  8
GREEN_AI_TREES
100
AcDbText
 10
78.22
 20
24.85
 30
0.0
 40
1.0
  1
T-045
100
AcDbText
  0
CIRCLE
  5
9C
330
17
100
AcDbEntity
  8
GREEN_AI_TREES
100
AcDbCircle
 10
50.6
 20
20.47
 30
0.0
 40
3.0
  0
TEXT
  5
9D
330
17
100
AcDbEntity
  8
GREEN_AI_TREES
100
AcDbText
 10
52.7
 20
22.57
 30
0.0
 40
1.0
  1
T-046
100
AcDbText
  0
CIRCLE
  5
9E
330
17
100
AcDbEntity
  8
GREEN_AI_TREES
100
AcDbCircle
 10
10.55
 20
57.65
 30
0.0
 40
3.0
  0
TEXT
  5
9F
330
17
100
AcDbEntity
  8
GREEN_AI_TREES
100
AcDbText
 10
12.65
 20
59.75
 30
0.0
 40
1.0
  1
T-047
100
AcDbText
  0
CIRCLE
  5
A0
330
17
100
AcDbEntity
  8
GREEN_AI_TREES
100
AcDbCircle
 10
83.07
 20
5.2
 30
0.0
 40
3.0
  0
TEXT
  5
A1
330
17
100
AcDbEntity
  8
GREEN_AI_TREES
100
AcDbText
 10
85.16999999999999
 20
7.3
 30
0.0
 40
1.0
  1
T-048
100
AcDbText
  0
CIRCLE
  5
A2
330
17
100
AcDbEntity
  8
GREEN_AI_TREES
100
AcDbCircle
 10
17.94
 20
0.85
 30
0.0
 40
3.0
  0
TEXT
  5
A3
330
17
100
AcDbEntity
  8
GREEN_AI_TREES
100
AcDbText
 10
20.04
 20
2.9499999999999997
 30
0.0
 40
1.0
  1
T-049
100
AcDbText
  0
CIRCLE
  5
A4
330
17
100
AcDbEntity
  8
GREEN_AI_TREES
100
AcDbCircle
 10
82.21
 20
24.04
 30
0.0
 40
3.0
  0
TEXT
  5
A5
330
17
100
AcDbEntity
  8
GREEN_AI_TREES
100
AcDbText
 10
84.30999999999999
 20
26.14
 30
0.0
 40
1.0
  1
T-050
100
AcDbText
  0
CIRCLE
  5
A6
330
17
100
AcDbEntity
  8
GREEN_AI_TREES
100
AcDbCircle
 10
66.04
 20
9.42
 30
0.0
 40
3.0
  0
TEXT
  5
A7
330
17
100
AcDbEntity
  8
GREEN_AI_TREES
100
AcDbText
 10
68.14
 20
11.52
 30
0.0
 40
1.0
  1
T-051
100
AcDbText
  0
CIRCLE
  5
A8
330
17
100
AcDbEntity
  8
GREEN_AI_TREES
100
AcDbCircle
 10
49.38
 20
4.83
 30
0.0
 40
3.0
  0
TEXT
  5
A9
330
17
100
AcDbEntity
  8
GREEN_AI_TREES
100
AcDbText
 10
51.480000000000004
 20
6.93
 30
0.0
 40
1.0
  1
T-052
100
AcDbText
  0
CIRCLE
  5
AA
330
17
100
AcDbEntity
  8
GREEN_AI_TREES
100
AcDbCircle
 10
54.26
 20
24.79
 30
0.0
 40
3.0
  0
TEXT
  5
AB
330
17
100
AcDbEntity
  8
GREEN_AI_TREES
100
AcDbText
 10
56.36
 20
26.89
 30
0.0
 40
1.0
  1
T-053
100
AcDbText
  0
CIRCLE
  5
AC
330
17
100
AcDbEntity
  8
GREEN_AI_TREES
100
AcDbCircle
 10
58.69
 20
59.93
 30
0.0
 40
3.0
  0
TEXT
  5
AD
330
17
100
AcDbEntity
  8
GREEN_AI_TREES
100
AcDbText
 10
60.79
 20
62.03
 30
0.0
 40
1.0
  1
T-054
100
AcDbText
  0
CIRCLE
  5
AE
330
17
100
AcDbEntity
  8
GREEN_AI_TREES
100
AcDbCircle
 10
92.09
 20
59.85
 30
0.0
 40
3.0
  0
TEXT
  5
AF
330
17
100
AcDbEntity
  8
GREEN_AI_TREES
100
AcDbText
 10
94.19
 20
61.95
 30
0.0
 40
1.0
  1
T-055
100
AcDbText
  0
CIRCLE
  5
B0
330
17
100
AcDbEntity
  8
GREEN_AI_TREES
100
AcDbCircle
 10
49.67
 20
54.25
 30
0.0
 40
3.0
  0
TEXT
  5
B1
330
17
100
AcDbEntity
  8
GREEN_AI_TREES
100
AcDbText
 10
51.77
 20
56.35
 30
0.0
 40
1.0
  1
T-056
100
AcDbText
  0
CIRCLE
  5
B2
330
17
100
AcDbEntity
  8
GREEN_AI_TREES
100
AcDbCircle
 10
95.15
 20
1.96
 30
0.0
 40
3.0
  0
TEXT
  5
B3
330
17
100
AcDbEntity
  8
GREEN_AI_TREES
100
AcDbText
 10
97.25
 20
4.06
 30
0.0
 40
1.0
  1
T-057
100
AcDbText
  0
CIRCLE
  5
B4
330
17
100
AcDbEntity
  8
GREEN_AI_TREES
100
AcDbCircle
 10
35.87
 20
23.89
 30
0.0
 40
3.0
  0
TEXT
  5
B5
330
17
100
AcDbEntity
  8
GREEN_AI_TREES
100
AcDbText
 10
37.97
 20
25.990000000000002
 30
0.0
 40
1.0
  1
T-058
100
AcDbText
  0
CIRCLE
  5
B6
330
17
100
AcDbEntity
  8
GREEN_AI_TREES
100
AcDbCircle
 10
4.23
 20
1.12
 30
0.0
 40
3.0
  0
TEXT
  5
B7
330
17
100
AcDbEntity
  8
GREEN_AI_TREES
100
AcDbText
 10
6.33
 20
3.2199999999999998
 30
0.0
 40
1.0
  1
T-059
100
AcDbText
  0
CIRCLE
  5
B8
330
17
100
AcDbEntity
  8
GREEN_AI_TREES
100
AcDbCircle
 10
96.77
 20
41.91
 30
0.0
 40
3.0
  0
TEXT
  5
B9
330
17
100
AcDbEntity
  8
GREEN_AI_TREES
100
AcDbText
 10
98.86999999999999
 20
44.01
 30
0.0
 40
1.0
  1
T-060
100
AcDbText
  0
CIRCLE
  5
BA
330
17
100
AcDbEntity
  8
GREEN_AI_SHRUBS
100
AcDbCircle
 10
93.8
 20
18.57
 30
0.0
 40
1.0
  0
TEXT
  5
BB
330
17
100
AcDbEntity
  8
GREEN_AI_SHRUBS
100
AcDbText
 10
94.5
 20
19.27
 30
0.0
 40
1.0
  1
S-001
100
AcDbText
  0
CIRCLE
  5
BC
330
17
100
AcDbEntity
  8
GREEN_AI_SHRUBS
100
AcDbCircle
 10
36.18
 20
21.76
 30
0.0
 40
1.0
  0
TEXT
  5
BD
330
17
100
AcDbEntity
  8
GREEN_AI_SHRUBS
100
AcDbText
 10
36.88
 20
22.46
 30
0.0
 40
1.0
  1
S-003
100
AcDbText
  0
CIRCLE
  5
BE
330
17
100
AcDbEntity
  8
GREEN_AI_SHRUBS
100
AcDbCircle
 10
7.72
 20
50.67
 30
0.0
 40
1.0
  0
TEXT
  5
BF
330
17
100
AcDbEntity
  8
GREEN_AI_SHRUBS
100
AcDbText
 10
8.42
 20
51.370000000000005
 30
0.0
 40
1.0
  1
S-004
100
AcDbText
  0
CIRCLE
  5
C0
330
17
100
AcDbEntity
  8
GREEN_AI_SHRUBS
100
AcDbCircle
 10
3.77
 20
20.21
 30
0.0
 40
1.0
  0
TEXT
  5
C1
330
17
100
AcDbEntity
  8
GREEN_AI_SHRUBS
100
AcDbText
 10
4.47
 20
20.91
 30
0.0
 40
1.0
  1
S-005
100
AcDbText
  0
CIRCLE
  5
C2
330
17
100
AcDbEntity
  8
GREEN_AI_SHRUBS
100
AcDbCircle
 10
37.67
 20
9.73
 30
0.0
 40
1.0
  0
TEXT
  5
C3
330
17
100
AcDbEntity
  8
GREEN_AI_SHRUBS
100
AcDbText
 10
38.370000000000005
 20
10.43
 30
0.0
 40
1.0
  1
S-006
100
AcDbText
  0
CIRCLE
  5
C4
330
17
100
AcDbEntity
  8
GREEN_AI_SHRUBS
100
AcDbCircle
 10
43.77
 20
24.65
 30
0.0
 40
1.0
  0
TEXT
  5
C5
330
17
100
AcDbEntity
  8
GREEN_AI_SHRUBS
100
AcDbText
 10
44.470000000000006
 20
25.349999999999998
 30
0.0
 40
1.0
  1
S-007
100
AcDbText
  0
CIRCLE
  5
C6
330
17
100
AcDbEntity
  8
GREEN_AI_SHRUBS
100
AcDbCircle
 10
67.64
 20
14.25
 30
0.0
 40
1.0
  0
TEXT
  5
C7
330
17
100
AcDbEntity
  8
GREEN_AI_SHRUBS
100
AcDbText
 10
68.34
 20
14.95
 30
0.0
 40
1.0
  1
S-008
100
AcDbText
  0
CIRCLE
  5
C8
330
17
100
AcDbEntity
  8
GREEN_AI_SHRUBS
100
AcDbCircle
 10
44.42
 20
17.1
 30
0.0
 40
1.0
  0
TEXT
  5
C9
330
17
100
AcDbEntity
  8
GREEN_AI_SHRUBS
100
AcDbText
 10
45.120000000000005
 20
17.8
 30
0.0
 40
1.0
  1
S-009
100
AcDbText
  0
CIRCLE
  5
CA
330
17
100
AcDbEntity
  8
GREEN_AI_SHRUBS
100
AcDbCircle
 10
53.4
 20
18.57
 30
0.0
 40
1.0
  0
TEXT
  5
CB
330
17
100
AcDbEntity
  8
GREEN_AI_SHRUBS
100
AcDbText
 10
54.1
 20
19.27
 30
0.0
 40
1.0
  1
S-011
100
AcDbText
  0
CIRCLE
  5
CC
330
17
100
AcDbEntity
  8
GREEN_AI_SHRUBS
100
AcDbCircle
 10
83.51
 20
22.07
 30
0.0
 40
1.0
  0
TEXT
  5
CD
330
17
100
AcDbEntity
  8
GREEN_AI_SHRUBS
100
AcDbText
 10
84.21000000000001
 20
22.77
 30
0.0
 40
1.0
  1
S-012
100
AcDbText
  0
CIRCLE
  5
CE
330
17
100
AcDbEntity
  8
GREEN_AI_SHRUBS
100
AcDbCircle
 10
94.71
 20
59.07
 30
0.0
 40
1.0
  0
TEXT
  5
CF
330
17
100
AcDbEntity
  8
GREEN_AI_SHRUBS
100
AcDbText
 10
95.41
 20
59.77
 30
0.0
 40
1.0
  1
S-013
100
AcDbText
  0
CIRCLE
  5
D0
330
17
100
AcDbEntity
  8
GREEN_AI_SHRUBS
100
AcDbCircle
 10
80.13
 20
8.3
 30
0.0
 40
1.0
  0
TEXT
  5
D1
330
17
100
AcDbEntity
  8
GREEN_AI_SHRUBS
100
AcDbText
 10
80.83
 20
9.0
 30
0.0
 40
1.0
  1
S-014
100
AcDbText
  0
CIRCLE
  5
D2
330
17
100
AcDbEntity
  8
GREEN_AI_SHRUBS
100
AcDbCircle
 10
10.26
 20
50.75
 30
0.0
 40
1.0
  0
TEXT
  5
D3
330
17
100
AcDbEntity
  8
GREEN_AI_SHRUBS
100
AcDbText
 10
10.959999999999999
 20
51.45
 30
0.0
 40
1.0
  1
S-015
100
AcDbText
  0
CIRCLE
  5
D4
330
17
100
AcDbEntity
  8
GREEN_AI_SHRUBS
100
AcDbCircle
 10
85.12
 20
17.1
 30
0.0
 40
1.0
  0
TEXT
  5
D5
330
17
100
AcDbEntity
  8
GREEN_AI_SHRUBS
100
AcDbText
 10
85.82000000000001
 20
17.8
 30
0.0
 40
1.0
  1
S-016
100
AcDbText
  0
CIRCLE
  5
D6
330
17
100
AcDbEntity
  8
GREEN_AI_SHRUBS
100
AcDbCircle
 10
76.31
 20
16.37
 30
0.0
 40
1.0
  0
TEXT
  5
D7
330
17
100
AcDbEntity
  8
GREEN_AI_SHRUBS
100
AcDbText
 10
77.01
 20
17.07
 30
0.0
 40
1.0
  1
S-017
100
AcDbText
  0
CIRCLE
  5
D8
330
17
100
AcDbEntity
  8
GREEN_AI_SHRUBS
100
AcDbCircle
 10
90.53
 20
8.84
 30
0.0
 40
1.0
  0
TEXT
  5
D9
330
17
100
AcDbEntity
  8
GREEN_AI_SHRUBS
100
AcDbText
 10
91.23
 20
9.54
 30
0.0
 40
1.0
  1
S-018
100
AcDbText
  0
CIRCLE
  5
DA
330
17
100
AcDbEntity
  8
GREEN_AI_SHRUBS
100
AcDbCircle
 10
34.96
 20
1.6
 30
0.0
 40
1.0
  0
TEXT
  5
DB
330
17
100
AcDbEntity
  8
GREEN_AI_SHRUBS
100
AcDbText
 10
35.660000000000004
 20
2.3
 30
0.0
 40
1.0
  1
S-019
100
AcDbText
  0
CIRCLE
  5
DC
330
17
100
AcDbEntity
  8
GREEN_AI_SHRUBS
100
AcDbCircle
 10
23.58
 20
59.67
 30
0.0
 40
1.0
  0
TEXT
  5
DD
330
17
100
AcDbEntity
  8
GREEN_AI_SHRUBS
100
AcDbText
 10
24.279999999999998
 20
60.370000000000005
 30
0.0
 40
1.0
  1
S-020
100
AcDbText
  0
CIRCLE
  5
DE
330
17
100
AcDbEntity
  8
GREEN_AI_SHRUBS
100
AcDbCircle
 10
37.49
 20
1.69
 30
0.0
 40
1.0
  0
TEXT
  5
DF
330
17
100
AcDbEntity
  8
GREEN_AI_SHRUBS
100
AcDbText
 10
38.190000000000005
 20
2.3899999999999997
 30
0.0
 40
1.0
  1
S-021
100
AcDbText
  0
CIRCLE
  5
E0
330
17
100
AcDbEntity
  8
GREEN_AI_SHRUBS
100
AcDbCircle
 10
44.86
 20
0.32
 30
0.0
 40
1.0
  0
TEXT
  5
E1
330
17
100
AcDbEntity
  8
GREEN_AI_SHRUBS
100
AcDbText
 10
45.56
 20
1.02
 30
0.0
 40
1.0
  1
S-024
100
AcDbText
  0
CIRCLE
  5
E2
330
17
100
AcDbEntity
  8
GREEN_AI_SHRUBS
100
AcDbCircle
 10
45.71
 20
6.65
 30
0.0
 40
1.0
  0
TEXT
  5
E3
330
17
100
AcDbEntity
  8
GREEN_AI_SHRUBS
100
AcDbText
 10
46.410000000000004
 20
7.3500000000000005
 30
0.0
 40
1.0
  1
S-026
100
AcDbText
  0
CIRCLE
  5
E4
330
17
100
AcDbEntity
  8
GREEN_AI_SHRUBS
100
AcDbCircle
 10
66.44
 20
5.14
 30
0.0
 40
1.0
  0
TEXT
  5
E5
330
17
100
AcDbEntity
  8
GREEN_AI_SHRUBS
100
AcDbText
 10
67.14
 20
5.84
 30
0.0
 40
1.0
  1
S-027
100
AcDbText
  0
CIRCLE
  5
E6
330
17
100
AcDbEntity
  8
GREEN_AI_SHRUBS
100
AcDbCircle
 10
97.47
 20
4.06
 30
0.0
 40
1.0
  0
TEXT
  5
E7
330
17
100
AcDbEntity
  8
GREEN_AI_SHRUBS
100
AcDbText
 10
98.17
 20
4.76
 30
0.0
 40
1.0
  1
S-028
100
AcDbText
  0
CIRCLE
  5
E8
330
17
100
AcDbEntity
  8
GREEN_AI_SHRUBS
100
AcDbCircle
 10
25.37
 20
0.97
 30
0.0
 40
1.0
  0
TEXT
  5
E9
330
17
100
AcDbEntity
  8
GREEN_AI_SHRUBS
100
AcDbText
 10
26.07
 20
1.67
 30
0.0
 40
1.0
  1
S-030
100
AcDbText
  0
CIRCLE
  5
EA
330
17
100
AcDbEntity
  8
GREEN_AI_SHRUBS
100
AcDbCircle
 10
78.85
 20
20.69
 30
0.0
 40
1.0
  0
TEXT
  5
EB
330
17
100
AcDbEntity
  8
GREEN_AI_SHRUBS
100
AcDbText
 10
79.55
 20
21.39
 30
0.0
 40
1.0
  1
S-031
100
AcDbText
  0
CIRCLE
  5
EC
330
17
100
AcDbEntity
  8
GREEN_AI_SHRUBS
100
AcDbCircle
 10
33.25
 20
2.66
 30
0.0
 40
1.0
  0
TEXT
  5
ED
330
17
100
AcDbEntity
  8
GREEN_AI_SHRUBS
100
AcDbText
 10
33.95
 20
3.3600000000000003
 30
0.0
 40
1.0
  1
S-032
100
AcDbText
  0
CIRCLE
  5
EE
330
17
100
AcDbEntity
  8
GREEN_AI_SHRUBS
100
AcDbCircle
 10
4.19
 20
56.0
 30
0.0
 40
1.0
  0
TEXT
  5
EF
330
17
100
AcDbEntity
  8
GREEN_AI_SHRUBS
100
AcDbText
 10
4.890000000000001
 20
56.7
 30
0.0
 40
1.0
  1
S-035
100
AcDbText
  0
CIRCLE
  5
F0
330
17
100
AcDbEntity
  8
GREEN_AI_SHRUBS
100
AcDbCircle
 10
51.54
 20
59.35
 30
0.0
 40
1.0
  0
TEXT
  5
F1
330
17
100
AcDbEntity
  8
GREEN_AI_SHRUBS
100
AcDbText
 10
52.24
 20
60.050000000000004
 30
0.0
 40
1.0
  1
S-036
100
AcDbText
  0
CIRCLE
  5
F2
330
17
100
AcDbEntity
  8
GREEN_AI_SHRUBS
100
AcDbCircle
 10
75.33
 20
11.47
 30
0.0
 40
1.0
  0
TEXT
  5
F3
330
17
100
AcDbEntity
  8
GREEN_AI_SHRUBS
100
AcDbText
 10
76.03
 20
12.17
 30
0.0
 40
1.0
  1
S-037
100
AcDbText
  0
CIRCLE
  5
F4
330
17
100
AcDbEntity
  8
GREEN_AI_SHRUBS
100
AcDbCircle
 10
89.46
 20
23.2
 30
0.0
 40
1.0
  0
TEXT
  5
F5
330
17
100
AcDbEntity
  8
GREEN_AI_SHRUBS
100
AcDbText
 10
90.16
 20
23.9
 30
0.0
 40
1.0
  1
S-039
100
AcDbText
  0
CIRCLE
  5
F6
330
17
100
AcDbEntity
  8
GREEN_AI_SHRUBS
100
AcDbCircle
 10
72.71
 20
4.74
 30
0.0
 40
1.0
  0
TEXT
  5
F7
330
17
100
AcDbEntity
  8
GREEN_AI_SHRUBS
100
AcDbText
 10
73.41
 20
5.44
 30
0.0
 40
1.0
  1
S-040
100
AcDbText
  0
CIRCLE
  5
F8
330
17
100
AcDbEntity
  8
GREEN_AI_SHRUBS
100
AcDbCircle
 10
99.82
 20
16.47
 30
0.0
 40
1.0
  0
TEXT
  5
F9
330
17
100
AcDbEntity
  8
GREEN_AI_SHRUBS
100
AcDbText
 10
100.52
 20
17.169999999999998
 30
0.0
 40
1.0
  1
S-043
100
AcDbText
  0
CIRCLE
  5
FA
330
17
100
AcDbEntity
  8
GREEN_AI_SHRUBS
100
AcDbCircle
 10
78.13
 20
2.09
 30
0.0
 40
1.0
  0
TEXT
  5
FB
330
17
100
AcDbEntity
  8
GREEN_AI_SHRUBS
100
AcDbText
 10
78.83
 20
2.79
 30
0.0
 40
1.0
  1
S-045
100
AcDbText
  0
CIRCLE
  5
FC
330
17
100
AcDbEntity
  8
GREEN_AI_SHRUBS
100
AcDbCircle
 10
44.63
 20
59.78
 30
0.0
 40
1.0
  0
TEXT
  5
FD
330
17
100
AcDbEntity
  8
GREEN_AI_SHRUBS
100
AcDbText
 10
45.330000000000005
 20
60.480000000000004
 30
0.0
 40
1.0
  1
S-047
100
AcDbText
  0
CIRCLE
  5
FE
330
17
100
AcDbEntity
  8
GREEN_AI_SHRUBS
100
AcDbCircle
 10
28.56
 20
54.99
 30
0.0
 40
1.0
  0
TEXT
  5
FF
330
17
100
AcDbEntity
  8
GREEN_AI_SHRUBS
100
AcDbText
 10
29.259999999999998
 20
55.690000000000005
 30
0.0
 40
1.0
  1
S-048
100
AcDbText
  0
CIRCLE
  5
100
330
17
100
AcDbEntity
  8
GREEN_AI_SHRUBS
100
AcDbCircle
 10
49.12
 20
7.36
 30
0.0
 40
1.0
  0
TEXT
  5
101
330
17
100
AcDbEntity
  8
GREEN_AI_SHRUBS
100
AcDbText
 10
49.82
 20
8.06
 30
0.0
 40
1.0
  1
S-049
100
AcDbText
  0
CIRCLE
  5
102
330
17
100
AcDbEntity
  8
GREEN_AI_SHRUBS
100
AcDbCircle
 10
84.55
 20
19.18
 30
0.0
 40
1.0
  0
TEXT
  5
103
330
17
100
AcDbEntity
  8
GREEN_AI_SHRUBS
100
AcDbText
 10
85.25
 20
19.88
 30
0.0
 40
1.0
  1
S-051
100
AcDbText
  0
CIRCLE
  5
104
330
17
100
AcDbEntity
  8
GREEN_AI_SHRUBS
100
AcDbCircle
 10
54.22
 20
53.48
 30
0.0
 40
1.0
  0
TEXT
  5
105
330
17
100
AcDbEntity
  8
GREEN_AI_SHRUBS
100
AcDbText
 10
54.92
 20
54.18
 30
0.0
 40
1.0
  1
S-052
100
AcDbText
  0
CIRCLE
  5
106
330
17
100
AcDbEntity
  8
GREEN_AI_SHRUBS
100
AcDbCircle
 10
34.45
 20
52.68
 30
0.0
 40
1.0
  0
TEXT
  5
107
330
17
100
AcDbEntity
  8
GREEN_AI_SHRUBS
100
AcDbText
 10
35.150000000000006
 20
53.38
 30
0.0
 40
1.0
  1
S-057
100
AcDbText
  0
CIRCLE
  5
108
330
17
100
AcDbEntity
  8
GREEN_AI_SHRUBS
100
AcDbCircle
 10
18.2
 20
57.98
 30
0.0
 40
1.0
  0
TEXT
  5
109
330
17
100
AcDbEntity
  8
GREEN_AI_SHRUBS
100
AcDbText
 10
18.9
 20
58.68
 30
0.0
 40
1.0
  1
S-058
100
AcDbText
  0
CIRCLE
  5
10A
330
17
100
AcDbEntity
  8
GREEN_AI_SHRUBS
100
AcDbCircle
 10
43.26
 20
54.64
 30
0.0
 40
1.0
  0
TEXT
  5
10B
330
17
100
AcDbEntity
  8
GREEN_AI_SHRUBS
100
AcDbText
 10
43.96
 20
55.34
 30
0.0
 40
1.0
  1
S-059
100
AcDbText
  0
CIRCLE
  5
10C
330
17
100
AcDbEntity
  8
GREEN_AI_SHRUBS
100
AcDbCircle
 10
5.54
 20
7.45
 30
0.0
 40
1.0
  0
TEXT
  5
10D
330
17
100
AcDbEntity
  8
GREEN_AI_SHRUBS
100
AcDbText
 10
6.24
 20
8.15
 30
0.0
 40
1.0
  1
S-060
100
AcDbText
  0
CIRCLE
  5
10E
330
17
100
AcDbEntity
  8
GREEN_AI_SHRUBS
100
AcDbCircle
 10
55.08
 20
7.51
 30
0.0
 40
1.0
  0
TEXT
  5
10F
330
17
100
AcDbEntity
  8
GREEN_AI_SHRUBS
100
AcDbText
 10
55.78
 20
8.209999999999999
 30
0.0
 40
1.0
  1
S-063
100
AcDbText
  0
CIRCLE
  5
110
330
17
100
AcDbEntity
  8
GREEN_AI_SHRUBS
100
AcDbCircle
 10
94.16
 20
9.25
 30
0.0
 40
1.0
  0
TEXT
  5
111
330
17
100
AcDbEntity
  8
GREEN_AI_SHRUBS
100
AcDbText
 10
94.86
 20
9.95
 30
0.0
 40
1.0
  1
S-064
100
AcDbText
  0
CIRCLE
  5
112
330
17
100
AcDbEntity
  8
GREEN_AI_SHRUBS
100
AcDbCircle
 10
2.84
 20
2.73
 30
0.0
 40
1.0
  0
TEXT
  5
113
330
17
100
AcDbEntity
  8
GREEN_AI_SHRUBS
100
AcDbText
 10
3.54
 20
3.4299999999999997
 30
0.0
 40
1.0
  1
S-066
100
AcDbText
  0
LWPOLYLINE
  5
114
330
17
100
AcDbEntity
  8
GREEN_AI_ZONES_ALLOWED
100
AcDbPolyline
 90
41
 70
1
 10
100.0
 20
0.0
 10
0.0
 20
0.0
 10
0.0
 20
25.0
 10
5.0
 20
25.0
 10
5.0
 20
10.0
 10
5.024076366639016
 20
9.509914298352196
 10
5.096073597983848
 20
9.024548389919357
 10
5.215298321338956
 20
8.548576613727688
 10
5.380602337443566
 20
8.08658283817455
 10
5.590393678258225
 20
7.64301631587001
 10
5.842651938487274
 20
7.222148834901989
 10
6.134947733186316
 20
6.828033579181772
 10
6.464466094067262
 20
6.464466094067262
 10
6.828033579181773
 20
6.134947733186315
 10
7.22214883490199
 20
5.842651938487274
 10
7.643016315870011
 20
5.590393678258224
 10
8.086582838174552
 20
5.380602337443566
 10
8.54857661372769
 20
5.215298321338955
 10
9.024548389919358
 20
5.096073597983848
 10
9.509914298352196
 20
5.024076366639015
 10
10.0
 20
5.0
 10
30.0
 20
5.0
 10
30.490085701647804
 20
5.024076366639016
 10
30.97545161008064
 20
5.096073597983848
 10
31.45142338627231
 20
5.215298321338955
 10
31.91341716182545
 20
5.380602337443566
 10
32.356983684129986
 20
5.590393678258225
 10
32.777851165098014
 20
5.842651938487274
 10
33.17196642081823
 20
6.134947733186316
 10
33.53553390593274
 20
6.464466094067262
 10
33.865052266813684
 20
6.828033579181772
 10
34.15734806151273
 20
7.222148834901989
 10
34.40960632174178
 20
7.643016315870011
 10
34.61939766255644
 20
8.08658283817455
 10
34.784701678661044
 20
8.548576613727688
 10
34.903926402016154
 20
9.024548389919358
 10
34.975923633360985
 20
9.509914298352196
 10
35.0
 20
10.0
 10
35.0
 20
25.0
 10
100.0
 20
25.0
 10
100.0
 20
0.0
  0
LWPOLYLINE
  5
115
330
17
100
AcDbEntity
  8
GREEN_AI_ZONES_ALLOWED
100
AcDbPolyline
 90
5
 70
1
 10
100.0
 20
41.0
 10
90.0
 20
41.0
 10
90.0
 20
42.69775050602232
 10
100.0
 20
42.99775050602232
 10
100.0
 20
41.0
  0
LWPOLYLINE
  5
116
330
17
100
AcDbEntity
  8
GREEN_AI_ZONES_ALLOWED
100
AcDbPolyline
 90
22
 70
1
 10
100.0
 20
60.0
 10
100.0
 20
52.99488800060505
 10
99.85006745447164
 20
52.99775151761183
 10
90.0
 20
52.70224949397768
 10
90.0
 20
55.0
 10
89.97592363336099
 20
55.4900857016478
 10
89.90392640201615
 20
55.97545161008064
 10
89.78470167866104
 20
56.45142338627231
 10
89.61939766255644
 20
56.91341716182545
 10
89.40960632174178
 20
57.356983684129986
 10
89.15734806151272
 20
57.777851165098014
 10
88.86505226681369
 20
58.17196642081823
 10
88.53553390593274
 20
58.53553390593274
 10
88.17196642081822
 20
58.865052266813684
 10
87.77785116509801
 20
59.15734806151273
 10
87.35698368412999
 20
59.40960632174178
 10
86.91341716182545
 20
59.61939766255644
 10
86.45142338627231
 20
59.784701678661044
 10
85.97545161008064
 20
59.903926402016154
 10
85.4900857016478
 20
59.975923633360985
 10
85.0
 20
60.0
 10
100.0
 20
60.0
  0
LWPOLYLINE
  5
117
330
17
100
AcDbEntity
  8
GREEN_AI_ZONES_ALLOWED
100
AcDbPolyline
 90
21
 70
1
 10
0.0
 20
60.0
 10
60.0
 20
60.0
 10
59.5099142983522
 20
59.975923633360985
 10
59.02454838991936
 20
59.903926402016154
 10
58.54857661372769
 20
59.784701678661044
 10
58.08658283817455
 20
59.61939766255644
 10
57.643016315870014
 20
59.40960632174178
 10
57.222148834901986
 20
59.15734806151273
 10
56.82803357918177
 20
58.865052266813684
 10
56.46446609406726
 20
58.53553390593274
 10
56.134947733186316
 20
58.17196642081823
 10
55.84265193848727
 20
57.777851165098014
 10
55.59039367825822
 20
57.356983684129986
 10
55.38060233744356
 20
56.91341716182545
 10
55.215298321338956
 20
56.45142338627231
 10
55.096073597983846
 20
55.97545161008064
 10
55.024076366639015
 20
55.49008570164781
 10
55.0
 20
55.0
 10
55.0
 20
51.652249493977685
 10
0.0
 20
50.00224949397768
 10
0.0
 20
60.0
  0
LWPOLYLINE
  5
118
330
17
100
AcDbEntity
  8
GREEN_AI_ZONES_ALLOWED
100
AcDbPolyline
 90
4
 70
1
 10
33.40831646592271
 20
41.0
 10
55.0
 20
41.64775050602232
 10
55.0
 20
41.0
 10
33.40831646592271
 20
41.0
  0
LWPOLYLINE
  5
119
330
17
100
AcDbEntity
  8
GREEN_AI_ZONES_FORBIDDEN
100
AcDbPolyline
 90
200
 70
1
 10
0.0
 20
25.0
 10
-0.49008570164780324
 20
25.024076366639015
 10
-0.975451610080641
 20
25.096073597983846
 10
-1.4514233862723107
 20
25.215298321338956
 10
-1.9134171618254485
 20
25.380602337443566
 10
-2.3569836841299887
 20
25.590393678258224
 10
-2.77785116509801
 20
25.842651938487272
 10
-3.1719664208182268
 20
26.134947733186316
 10
-3.5355339059327373
 20
26.464466094067262
 10
-3.865052266813685
 20
26.82803357918177
 10
-4.157348061512726
 20
27.22214883490199
 10
-4.409606321741775
 20
27.64301631587001
 10
-4.619397662556434
 20
28.08658283817455
 10
-4.784701678661044
 20
28.54857661372769
 10
-4.903926402016152
 20
29.024548389919357
 10
-4.975923633360984
 20
29.509914298352196
 10
-5.0
 20
30.0
 10
-5.0
 20
36.0
 10
-4.975923633360984
 20
36.49008570164781
 10
-4.903926402016152
 20
36.97545161008064
 10
-4.784701678661044
 20
37.45142338627231
 10
-4.619397662556434
 20
37.91341716182545
 10
-4.409606321741775
 20
38.356983684129986
 10
-4.157348061512726
 20
38.777851165098014
 10
-3.865052266813685
 20
39.17196642081823
 10
-3.5355339059327373
 20
39.53553390593274
 10
-3.1719664208182268
 20
39.865052266813684
 10
-2.77785116509801
 20
40.15734806151273
 10
-2.3569836841299887
 20
40.40960632174178
 10
-2.1697761144282843
 20
40.4981489079909
 10
-2.2236950567500617
 20
40.52169894998278
 10
-2.6519376197116804
 20
40.761223424010424
 10
-3.0546405736989106
 20
41.04156963361582
 10
-3.4279256691250257
 20
41.36003769154765
 10
-3.768197966462682
 20
41.713560576315686
 10
-4.072180457476757
 20
42.09873366928433
 10
-4.336945624605057
 20
42.51184754301127
 10
-4.559943634552769
 20
42.9489236850615
 10
-4.739026894580985
 20
43.40575281325696
 10
-4.8724707349987675
 20
43.877935413364916
 10
-4.958990018675069
 20
44.36092410882506
 10
-4.9977515176118334
 20
44.85006745447164
 10
-4.988381937385111
 20
45.34065473249313
 10
-4.930971512174418
 20
45.82796131921989
 10
-4.826073135758264
 20
46.30729418583286
 10
-4.674697036844821
 20
46.77403709479657
 10
-4.478301050017222
 20
47.22369505675006
 10
-4.238776575989579
 20
47.65193761971168
 10
-3.9584303663841798
 20
48.05464057369891
 10
-3.639962308452349
 20
48.427925669125024
 10
-3.2864394236843193
 20
48.76819796646268
 10
-2.901266330715674
 20
49.072180457476755
 10
-2.488152456988733
 20
49.33694562460506
 10
-2.0510763149385016
 20
49.559943634552766
 10
-1.5942471867430419
 20
49.73902689458099
 10
-1.122064586635084
 20
49.87247073499877
 10
-0.6390758911749377
 20
49.95899001867507
 10
-0.14993254552835503
 20
49.99775151761183
 10
55.0
 20
51.652249493977685
 10
55.0
 20
55.0
 10
55.024076366639015
 20
55.49008570164781
 10
55.096073597983846
 20
55.97545161008064
 10
55.215298321338956
 20
56.45142338627231
 10
55.38060233744356
 20
56.91341716182545
 10
55.59039367825822
 20
57.356983684129986
 10
55.84265193848727
 20
57.777851165098014
 10
56.134947733186316
 20
58.17196642081823
 10
56.46446609406726
 20
58.53553390593274
 10
56.82803357918177
 20
58.865052266813684
 10
57.222148834901986
 20
59.15734806151273
 10
57.643016315870014
 20
59.40960632174178
 10
58.08658283817455
 20
59.61939766255644
 10
58.54857661372769
 20
59.784701678661044
 10
59.02454838991936
 20
59.903926402016154
 10
59.5099142983522
 20
59.975923633360985
 10
60.0
 20
60.0
 10
85.0
 20
60.0
 10
85.4900857016478
 20
59.975923633360985
 10
85.97545161008064
 20
59.903926402016154
 10
86.45142338627231
 20
59.784701678661044
 10
86.91341716182545
 20
59.61939766255644
 10
87.35698368412999
 20
59.40960632174178
 10
87.77785116509801
 20
59.15734806151273
 10
88.17196642081822
 20
58.865052266813684
 10
88.53553390593274
 20
58.53553390593274
 10
88.86505226681369
 20
58.17196642081823
 10
89.15734806151272
 20
57.777851165098014
 10
89.40960632174178
 20
57.356983684129986
 10
89.61939766255644
 20
56.91341716182545
 10
89.78470167866104
 20
56.45142338627231
 10
89.90392640201615
 20
55.97545161008064
 10
89.97592363336099
 20
55.4900857016478
 10
90.0
 20
55.0
 10
90.0
 20
52.70224949397768
 10
99.85006745447164
 20
52.99775151761183
 10
100.34065473249314
 20
52.988381937385114
 10
100.8279613192199
 20
52.930971512174416
 10
101.30729418583286
 20
52.826073135758264
 10
101.77403709479657
 20
52.67469703684482
 10
102.22369505675006
 20
52.47830105001722
 10
102.65193761971169
 20
52.238776575989576
 10
103.05464057369892
 20
51.95843036638418
 10
103.42792566912503
 20
51.63996230845235
 10
103.76819796646268
 20
51.286439423684314
 10
104.07218045747676
 20
50.90126633071567
 10
104.33694562460505
 20
50.48815245698873
 10
104.55994363455277
 20
50.0510763149385
 10
104.73902689458099
 20
49.59424718674304
 10
104.87247073499877
 20
49.122064586635084
 10
104.95899001867507
 20
48.63907589117494
 10
104.99775151761183
 20
48.14993254552836
 10
104.98838193738511
 20
47.65934526750687
 10
104.93097151217442
 20
47.17203868078011
 10
104.82607313575826
 20
46.69270581416714
 10
104.67469703684482
 20
46.22596290520343
 10
104.47830105001722
 20
45.77630494324994
 10
104.23877657598958
 20
45.34806238028832
 10
103.95843036638418
 20
44.94535942630109
 10
103.63996230845235
 20
44.572074330874976
 10
103.28643942368431
 20
44.23180203353732
 10
102.90126633071567
 20
43.92781954252324
 10
102.48815245698873
 20
43.66305437539494
 10
102.0510763149385
 20
43.440056365447234
 10
101.59424718674303
 20
43.26097310541901
 10
101.12206458663509
 20
43.12752926500123
 10
100.63907589117494
 20
43.04100998132493
 10
100.14993254552836
 20
43.00224848238817
 10
90.0
 20
42.69775050602232
 10
90.0
 20
41.0
 10
100.0
 20
41.0
 10
100.4900857016478
 20
40.975923633360985
 10
100.97545161008064
 20
40.903926402016154
 10
101.45142338627231
 20
40.784701678661044
 10
101.91341716182545
 20
40.61939766255644
 10
102.35698368412999
 20
40.40960632174178
 10
102.77785116509801
 20
40.15734806151273
 10
103.17196642081822
 20
39.865052266813684
 10
103.53553390593274
 20
39.53553390593274
 10
103.86505226681369
 20
39.17196642081823
 10
104.15734806151272
 20
38.777851165098014
 10
104.40960632174178
 20
38.356983684129986
 10
104.61939766255644
 20
37.91341716182545
 10
104.78470167866104
 20
37.45142338627231
 10
104.90392640201615
 20
36.97545161008064
 10
104.97592363336099
 20
36.4900857016478
 10
105.0
 20
36.0
 10
105.0
 20
30.0
 10
104.97592363336099
 20
29.509914298352196
 10
104.90392640201615
 20
29.02454838991936
 10
104.78470167866105
 20
28.54857661372769
 10
104.61939766255644
 20
28.08658283817455
 10
104.40960632174178
 20
27.64301631587001
 10
104.15734806151272
 20
27.22214883490199
 10
103.86505226681369
 20
26.82803357918177
 10
103.53553390593274
 20
26.464466094067262
 10
103.17196642081822
 20
26.134947733186316
 10
102.77785116509801
 20
25.842651938487272
 10
102.35698368412999
 20
25.590393678258224
 10
101.91341716182545
 20
25.380602337443566
 10
101.45142338627231
 20
25.215298321338956
 10
100.97545161008064
 20
25.096073597983846
 10
100.4900857016478
 20
25.024076366639015
 10
100.0
 20
25.0
 10
35.0
 20
25.0
 10
35.0
 20
10.0
 10
34.975923633360985
 20
9.509914298352196
 10
34.903926402016154
 20
9.024548389919358
 10
34.784701678661044
 20
8.548576613727688
 10
34.61939766255644
 20
8.08658283817455
 10
34.40960632174178
 20
7.643016315870011
 10
34.15734806151273
 20
7.222148834901989
 10
33.865052266813684
 20
6.828033579181772
 10
33.53553390593274
 20
6.464466094067262
 10
33.17196642081823
 20
6.134947733186316
 10
32.777851165098014
 20
5.842651938487274
 10
32.356983684129986
 20
5.590393678258225
 10
31.91341716182545
 20
5.380602337443566
 10
31.45142338627231
 20
5.215298321338955
 10
30.97545161008064
 20
5.096073597983848
 10
30.490085701647804
 20
5.024076366639016
 10
30.0
 20
5.0
 10
10.0
 20
5.0
 10
9.509914298352196
 20
5.024076366639015
 10
9.024548389919358
 20
5.096073597983848
 10
8.54857661372769
 20
5.215298321338955
 10
8.086582838174552
 20
5.380602337443566
 10
7.643016315870011
 20
5.590393678258224
 10
7.22214883490199
 20
5.842651938487274
 10
6.828033579181773
 20
6.134947733186315
 10
6.464466094067262
 20
6.464466094067262
 10
6.134947733186316
 20
6.828033579181772
 10
5.842651938487274
 20
7.222148834901989
 10
5.590393678258225
 20
7.64301631587001
 10
5.380602337443566
 20
8.08658283817455
 10
5.215298321338956
 20
8.548576613727688
 10
5.096073597983848
 20
9.024548389919357
 10
5.024076366639016
 20
9.509914298352196
 10
5.0
 20
10.0
 10
5.0
 20
25.0
 10
0.0
 20
25.0
  0
ENDSEC
  0
SECTION
  2
OBJECTS
  0
DICTIONARY
  5
A
330
0
100
AcDbDictionary
281
1
  3
ACAD_COLOR
350
B
  3
ACAD_GROUP
350
C
  3
ACAD_LAYOUT
350
D
  3
ACAD_MATERIAL
350
E
  3
ACAD_MLEADERSTYLE
350
F
  3
ACAD_MLINESTYLE
350
10
  3
ACAD_PLOTSETTINGS
350
11
  3
ACAD_PLOTSTYLENAME
350
12
  3
ACAD_SCALELIST
350
14
  3
ACAD_TABLESTYLE
350
15
  3
ACAD_VISUALSTYLE
350
16
  3
EZDXF_META
350
2D
  0
DICTIONARY
  5
B
330
A
100
AcDbDictionary
281
1
  0
DICTIONARY
  5
C
330
A
100
AcDbDictionary
281
1
  0
DICTIONARY
  5
D
330
A
100
AcDbDictionary
281
1
  3
Model
350
1A
  3
Layout1
350
1E
  0
DICTIONARY
  5
E
330
A
100
AcDbDictionary
281
1
  3
ByBlock
350
1F
  3
ByLayer
350
20
  3
Global
350
21
  0
DICTIONARY
  5
F
330
A
100
AcDbDictionary
281
1
  3
Standard
350
2C
  0
DICTIONARY
  5
10
330
A
100
AcDbDictionary
281
1
  3
Standard
350
22
  0
DICTIONARY
  5
11
330
A
100
AcDbDictionary
281
1
  0
ACDBDICTIONARYWDFLT
  5
12
330
A
100
AcDbDictionary
281
1
  3
Normal
350
13
100
AcDbDictionaryWithDefault
340
13
  0
ACDBPLACEHOLDER
  5
13
330
12
  0
DICTIONARY
  5
14
330
A
100
AcDbDictionary
281
1
  0
DICTIONARY
  5
15
330
A
100
AcDbDictionary
281
1
  0
DICTIONARY
  5
16
330
A
100
AcDbDictionary
281
1
  0
LAYOUT
  5
1A
330
D
100
AcDbPlotSettings
  1

  4
A3
  6

 40
7.5
 41
20.0
 42
7.5
 43
20.0
 44
420.0
 45
297.0
 46
0.0
 47
0.0
 48
0.0
 49
0.0
140
0.0
141
0.0
142
1.0
143
1.0
 70
1024
 72
1
 73
0
 74
5
  7

 75
16
 76
0
 77
2
 78
300
147
1.0
148
0.0
149
0.0
100
AcDbLayout
  1
Model
 70
1
 71
0
 10
0.0
 20
0.0
 11
420.0
 21
297.0
 12
0.0
 22
0.0
 32
0.0
 14
1e+20
 24
1e+20
 34
1e+20
 15
-1e+20
 25
-1e+20
 35
-1e+20
146
0.0
 13
0.0
 23
0.0
 33
0.0
 16
1.0
 26
0.0
 36
0.0
 17
0.0
 27
1.0
 37
0.0
 76
1
330
17
  0
LAYOUT
  5
1E
330
D
100
AcDbPlotSettings
  1

  4
A3
  6

 40
7.5
 41
20.0
 42
7.5
 43
20.0
 44
420.0
 45
297.0
 46
0.0
 47
0.0
 48
0.0
 49
0.0
140
0.0
141
0.0
142
1.0
143
1.0
 70
0
 72
1
 73
0
 74
5
  7

 75
16
 76
0
 77
2
 78
300
147
1.0
148
0.0
149
0.0
100
AcDbLayout
  1
Layout1
 70
1
 71
1
 10
0.0
 20
0.0
 11
420.0
 21
297.0
 12
0.0
 22
0.0
 32
0.0
 14
1e+20
 24
1e+20
 34
1e+20
 15
-1e+20
 25
-1e+20
 35
-1e+20
146
0.0
 13
0.0
 23
0.0
 33
0.0
 16
1.0
 26
0.0
 36
0.0
 17
0.0
 27
1.0
 37
0.0
 76
1
330
1B
  0
MATERIAL
  5
1F
102
{ACAD_REACTORS
330
E
102
}
330
E
100
AcDbMaterial
  1
ByBlock
  2

 70
0
 40
1.0
 71
1
 41
1.0
 91
-1023410177
 42
1.0
 72
1
  3

 73
1
 74
1
 75
1
 44
0.5
 73
0
 45
1.0
 46
1.0
 77
1
  4

 78
1
 79
1
170
1
 48
1.0
171
1
  6

172
1
173
1
174
1
140
1.0
141
1.0
175
1
  7

176
1
177
1
178
1
143
1.0
179
1
  8

270
1
271
1
272
1
145
1.0
146
1.0
273
1
  9

274
1
275
1
276
1
 42
1.0
 72
1
  3

 73
1
 74
1
 75
1
 94
63
  0
MATERIAL
  5
20
102
{ACAD_REACTORS
330
E
102
}
330
E
100
AcDbMaterial
  1
ByLayer
  2

 70
0
 40
1.0
 71
1
 41
1.0
 91
-1023410177
 42
1.0
 72
1
  3

 73
1
 74
1
 75
1
 44
0.5
 73
0
 45
1.0
 46
1.0
 77
1
  4

 78
1
 79
1
170
1
 48
1.0
171
1
  6

172
1
173
1
174
1
140
1.0
141
1.0
175
1
  7

176
1
177
1
178
1
143
1.0
179
1
  8

270
1
271
1
272
1
145
1.0
146
1.0
273
1
  9

274
1
275
1
276
1
 42
1.0
 72
1
  3

 73
1
 74
1
 75
1
 94
63
  0
MATERIAL
  5
21
102
{ACAD_REACTORS
330
E
102
}
330
E
100
AcDbMaterial
  1
Global
  2

 70
0
 40
1.0
 71
1
 41
1.0
 91
-1023410177
 42
1.0
 72
1
  3

 73
1
 74
1
 75
1
 44
0.5
 73
0
 45
1.0
 46
1.0
 77
1
  4

 78
1
 79
1
170
1
 48
1.0
171
1
  6

172
1
173
1
174
1
140
1.0
141
1.0
175
1
  7

176
1
177
1
178
1
143
1.0
179
1
  8

270
1
271
1
272
1
145
1.0
146
1.0
273
1
  9

274
1
275
1
276
1
 42
1.0
 72
1
  3

 73
1
 74
1
 75
1
 94
63
  0
MLINESTYLE
  5
22
102
{ACAD_REACTORS
330
10
102
}
330
10
100
AcDbMlineStyle
  2
Standard
 70
0
  3

 62
256
 51
90.0
 52
90.0
 71
2
 49
0.5
 62
256
  6
BYLAYER
 49
-0.5
 62
256
  6
BYLAYER
  0
MLEADERSTYLE
  5
2C
102
{ACAD_REACTORS
330
F
102
}
330
F
100
AcDbMLeaderStyle
179
2
170
2
171
1
172
0
 90
2
 40
0.0
 41
0.0
173
1
 91
-1056964608
 92
-2
290
1
 42
2.0
291
1
 43
8.0
  3
Standard
 44
4.0
300

342
29
174
1
175
1
176
0
178
1
 93
-1056964608
 45
4.0
292
0
297
0
 46
4.0
 94
-1056964608
 47
1.0
 49
1.0
140
1.0
294
1
141
0.0
177
0
142
1.0
295
0
296
0
143
3.75
271
0
272
9
273
9
  0
DICTIONARY
  5
2D
330
A
100
AcDbDictionary
280
1
281
1
  3
CREATED_BY_EZDXF
350
2E
  3
WRITTEN_BY_EZDXF
350
3D
  0
DICTIONARYVAR
  5
2E
330
2D
100
DictionaryVariables
280
0
  1
1.4.4 @ 2026-09-24T07:47:40.796902+00:00
  0
DICTIONARYVAR
  5
3D
330
2D
100
DictionaryVariables
280
0
  1
1.4.4 @ 2026-09-28T15:44:13.351310+00:00
  0
ENDSEC
  0
EOF
